<mxfile host="drawio-plugin" modified="2023-05-03T17:10:11.416Z" agent="5.0 (Macintosh; Intel Mac OS X 10_16_0) AppleWebKit/537.36 (KHTML, like Gecko) Chrome/81.0.4044.113 Safari/537.36" etag="lS1nWN8xb_jU7aw02ff5" version="13.7.9" type="embed"><diagram id="Q3QN1jbFQyN6F8eo4CUU" name="Страница 1"><mxGraphModel dx="653" dy="460" grid="1" gridSize="10" guides="1" tooltips="1" connect="1" arrows="1" fold="1" page="1" pageScale="1" pageWidth="827" pageHeight="1169" math="0" shadow="0"><root><mxCell id="0"/><mxCell id="1" parent="0"/><mxCell id="7zCTIipYi7FR90v1prxV-13" value="Trasactions" style="swimlane;fontStyle=0;childLayout=stackLayout;horizontal=1;startSize=20;horizontalStack=0;resizeParent=1;resizeParentMax=0;resizeLast=0;collapsible=1;marginBottom=0;whiteSpace=wrap;html=1;fillColor=#a20025;strokeColor=#6F0000;fontColor=#ffffff;" parent="1" vertex="1"><mxGeometry x="100" y="170" width="190" height="260" as="geometry"/></mxCell><mxCell id="7zCTIipYi7FR90v1prxV-14" value="id: string PK" style="text;strokeColor=none;fillColor=none;align=left;verticalAlign=middle;spacingLeft=4;spacingRight=4;overflow=hidden;points=[[0,0.5],[1,0.5]];portConstraint=eastwest;rotatable=0;whiteSpace=wrap;html=1;" parent="7zCTIipYi7FR90v1prxV-13" vertex="1"><mxGeometry y="20" width="190" height="30" as="geometry"/></mxCell><mxCell id="7zCTIipYi7FR90v1prxV-17" value="envelop: string[] FK" style="text;strokeColor=none;fillColor=none;align=left;verticalAlign=middle;spacingLeft=4;spacingRight=4;overflow=hidden;points=[[0,0.5],[1,0.5]];portConstraint=eastwest;rotatable=0;whiteSpace=wrap;html=1;" parent="7zCTIipYi7FR90v1prxV-13" vertex="1"><mxGeometry y="50" width="190" height="30" as="geometry"/></mxCell><mxCell id="7zCTIipYi7FR90v1prxV-15" value="userId: string FK" style="text;strokeColor=none;fillColor=none;align=left;verticalAlign=middle;spacingLeft=4;spacingRight=4;overflow=hidden;points=[[0,0.5],[1,0.5]];portConstraint=eastwest;rotatable=0;whiteSpace=wrap;html=1;" parent="7zCTIipYi7FR90v1prxV-13" vertex="1"><mxGeometry y="80" width="190" height="30" as="geometry"/></mxCell><mxCell id="7zCTIipYi7FR90v1prxV-16" value="category: string[] FK" style="text;strokeColor=none;fillColor=none;align=left;verticalAlign=middle;spacingLeft=4;spacingRight=4;overflow=hidden;points=[[0,0.5],[1,0.5]];portConstraint=eastwest;rotatable=0;whiteSpace=wrap;html=1;" parent="7zCTIipYi7FR90v1prxV-13" vertex="1"><mxGeometry y="110" width="190" height="30" as="geometry"/></mxCell><mxCell id="7zCTIipYi7FR90v1prxV-18" value="amount: number" style="text;strokeColor=none;fillColor=none;align=left;verticalAlign=middle;spacingLeft=4;spacingRight=4;overflow=hidden;points=[[0,0.5],[1,0.5]];portConstraint=eastwest;rotatable=0;whiteSpace=wrap;html=1;" parent="7zCTIipYi7FR90v1prxV-13" vertex="1"><mxGeometry y="140" width="190" height="30" as="geometry"/></mxCell><mxCell id="7zCTIipYi7FR90v1prxV-19" value="date: Date" style="text;strokeColor=none;fillColor=none;align=left;verticalAlign=middle;spacingLeft=4;spacingRight=4;overflow=hidden;points=[[0,0.5],[1,0.5]];portConstraint=eastwest;rotatable=0;whiteSpace=wrap;html=1;" parent="7zCTIipYi7FR90v1prxV-13" vertex="1"><mxGeometry y="170" width="190" height="30" as="geometry"/></mxCell><mxCell id="7zCTIipYi7FR90v1prxV-29" value="description: string" style="text;strokeColor=none;fillColor=none;align=left;verticalAlign=middle;spacingLeft=4;spacingRight=4;overflow=hidden;points=[[0,0.5],[1,0.5]];portConstraint=eastwest;rotatable=0;whiteSpace=wrap;html=1;" parent="7zCTIipYi7FR90v1prxV-13" vertex="1"><mxGeometry y="200" width="190" height="30" as="geometry"/></mxCell><mxCell id="7zCTIipYi7FR90v1prxV-30" value="type: 'income' | 'expenses'" style="text;strokeColor=none;fillColor=none;align=left;verticalAlign=middle;spacingLeft=4;spacingRight=4;overflow=hidden;points=[[0,0.5],[1,0.5]];portConstraint=eastwest;rotatable=0;whiteSpace=wrap;html=1;" parent="7zCTIipYi7FR90v1prxV-13" vertex="1"><mxGeometry y="230" width="190" height="30" as="geometry"/></mxCell><mxCell id="7zCTIipYi7FR90v1prxV-32" value="Envelop" style="swimlane;fontStyle=0;childLayout=stackLayout;horizontal=1;startSize=30;horizontalStack=0;resizeParent=1;resizeParentMax=0;resizeLast=0;collapsible=1;marginBottom=0;whiteSpace=wrap;html=1;fillColor=#60a917;strokeColor=#2D7600;fontColor=#ffffff;" parent="1" vertex="1"><mxGeometry x="450" y="130" width="140" height="120" as="geometry"/></mxCell><mxCell id="7zCTIipYi7FR90v1prxV-33" value="id: string PK" style="text;strokeColor=none;fillColor=none;align=left;verticalAlign=middle;spacingLeft=4;spacingRight=4;overflow=hidden;points=[[0,0.5],[1,0.5]];portConstraint=eastwest;rotatable=0;whiteSpace=wrap;html=1;" parent="7zCTIipYi7FR90v1prxV-32" vertex="1"><mxGeometry y="30" width="140" height="30" as="geometry"/></mxCell><mxCell id="7zCTIipYi7FR90v1prxV-35" value="userId: FK" style="text;strokeColor=none;fillColor=none;align=left;verticalAlign=middle;spacingLeft=4;spacingRight=4;overflow=hidden;points=[[0,0.5],[1,0.5]];portConstraint=eastwest;rotatable=0;whiteSpace=wrap;html=1;" parent="7zCTIipYi7FR90v1prxV-32" vertex="1"><mxGeometry y="60" width="140" height="30" as="geometry"/></mxCell><mxCell id="4" value="name: string" style="text;strokeColor=none;fillColor=none;align=left;verticalAlign=middle;spacingLeft=4;spacingRight=4;overflow=hidden;points=[[0,0.5],[1,0.5]];portConstraint=eastwest;rotatable=0;whiteSpace=wrap;html=1;" vertex="1" parent="7zCTIipYi7FR90v1prxV-32"><mxGeometry y="90" width="140" height="30" as="geometry"/></mxCell><mxCell id="7zCTIipYi7FR90v1prxV-36" style="edgeStyle=orthogonalEdgeStyle;rounded=0;orthogonalLoop=1;jettySize=auto;html=1;entryX=1;entryY=0.5;entryDx=0;entryDy=0;" parent="1" source="7zCTIipYi7FR90v1prxV-33" target="7zCTIipYi7FR90v1prxV-17" edge="1"><mxGeometry relative="1" as="geometry"/></mxCell><mxCell id="7zCTIipYi7FR90v1prxV-37" value="User" style="swimlane;fontStyle=0;childLayout=stackLayout;horizontal=1;startSize=30;horizontalStack=0;resizeParent=1;resizeParentMax=0;resizeLast=0;collapsible=1;marginBottom=0;whiteSpace=wrap;html=1;strokeColor=#9673a6;fillColor=#BFBBE7;" parent="1" vertex="1"><mxGeometry x="610" y="290" width="140" height="60" as="geometry"/></mxCell><mxCell id="7zCTIipYi7FR90v1prxV-38" value="id: string PK" style="text;strokeColor=none;fillColor=none;align=left;verticalAlign=middle;spacingLeft=4;spacingRight=4;overflow=hidden;points=[[0,0.5],[1,0.5]];portConstraint=eastwest;rotatable=0;whiteSpace=wrap;html=1;" parent="7zCTIipYi7FR90v1prxV-37" vertex="1"><mxGeometry y="30" width="140" height="30" as="geometry"/></mxCell><mxCell id="7zCTIipYi7FR90v1prxV-41" style="edgeStyle=orthogonalEdgeStyle;rounded=0;orthogonalLoop=1;jettySize=auto;html=1;entryX=1;entryY=0.5;entryDx=0;entryDy=0;" parent="1" source="7zCTIipYi7FR90v1prxV-38" target="7zCTIipYi7FR90v1prxV-35" edge="1"><mxGeometry relative="1" as="geometry"/></mxCell><mxCell id="7zCTIipYi7FR90v1prxV-42" style="edgeStyle=orthogonalEdgeStyle;rounded=0;orthogonalLoop=1;jettySize=auto;html=1;entryX=1;entryY=0.5;entryDx=0;entryDy=0;" parent="1" source="7zCTIipYi7FR90v1prxV-38" target="7zCTIipYi7FR90v1prxV-15" edge="1"><mxGeometry relative="1" as="geometry"/></mxCell><mxCell id="7zCTIipYi7FR90v1prxV-43" value="Category" style="swimlane;fontStyle=0;childLayout=stackLayout;horizontal=1;startSize=30;horizontalStack=0;resizeParent=1;resizeParentMax=0;resizeLast=0;collapsible=1;marginBottom=0;whiteSpace=wrap;html=1;strokeColor=#82b366;fillColor=#A5D6E8;" parent="1" vertex="1"><mxGeometry x="380" y="380" width="140" height="120" as="geometry"/></mxCell><mxCell id="7zCTIipYi7FR90v1prxV-44" value="id: string PK" style="text;strokeColor=none;fillColor=none;align=left;verticalAlign=middle;spacingLeft=4;spacingRight=4;overflow=hidden;points=[[0,0.5],[1,0.5]];portConstraint=eastwest;rotatable=0;whiteSpace=wrap;html=1;" parent="7zCTIipYi7FR90v1prxV-43" vertex="1"><mxGeometry y="30" width="140" height="30" as="geometry"/></mxCell><mxCell id="7zCTIipYi7FR90v1prxV-45" value="userId: FK" style="text;strokeColor=none;fillColor=none;align=left;verticalAlign=middle;spacingLeft=4;spacingRight=4;overflow=hidden;points=[[0,0.5],[1,0.5]];portConstraint=eastwest;rotatable=0;whiteSpace=wrap;html=1;" parent="7zCTIipYi7FR90v1prxV-43" vertex="1"><mxGeometry y="60" width="140" height="30" as="geometry"/></mxCell><mxCell id="7zCTIipYi7FR90v1prxV-46" value="name: string" style="text;strokeColor=none;fillColor=none;align=left;verticalAlign=middle;spacingLeft=4;spacingRight=4;overflow=hidden;points=[[0,0.5],[1,0.5]];portConstraint=eastwest;rotatable=0;whiteSpace=wrap;html=1;" parent="7zCTIipYi7FR90v1prxV-43" vertex="1"><mxGeometry y="90" width="140" height="30" as="geometry"/></mxCell><mxCell id="7zCTIipYi7FR90v1prxV-47" style="edgeStyle=orthogonalEdgeStyle;rounded=0;orthogonalLoop=1;jettySize=auto;html=1;entryX=1;entryY=0.5;entryDx=0;entryDy=0;" parent="1" source="7zCTIipYi7FR90v1prxV-44" target="7zCTIipYi7FR90v1prxV-16" edge="1"><mxGeometry relative="1" as="geometry"/></mxCell><mxCell id="7zCTIipYi7FR90v1prxV-48" style="edgeStyle=orthogonalEdgeStyle;rounded=0;orthogonalLoop=1;jettySize=auto;html=1;entryX=1;entryY=0.5;entryDx=0;entryDy=0;" parent="1" source="7zCTIipYi7FR90v1prxV-38" target="7zCTIipYi7FR90v1prxV-45" edge="1"><mxGeometry relative="1" as="geometry"/></mxCell></root></mxGraphModel></diagram></mxfile>